<svg xmlns="http://www.w3.org/2000/svg" viewBox="0 11.579999923706055 274.0799865722656 37.349998474121094" data-asc="0.96875" width="274.0799865722656" height="37.349998474121094"><defs/><g fill="#ffffff"><g transform="translate(0, 0)"><path d="M10.72 48.44L0 12.07L11.01 12.07L15.98 34.45L16.26 34.45L22.16 12.07L30.82 12.07L36.72 34.52L37.00 34.52L41.97 12.07L52.98 12.07L42.26 48.44L32.81 48.44L26.63 28.12L26.35 28.12L20.17 48.44L10.72 48.44ZM56.18 48.44L56.18 12.07L66.05 12.07L66.05 26.28L79.12 26.28L79.12 12.07L88.99 12.07L88.99 48.44L79.12 48.44L79.12 34.23L66.05 34.23L66.05 48.44L56.18 48.44ZM103.13 48.44L92.47 48.44L104.47 12.07L117.97 12.07L129.97 48.44L119.32 48.44L111.36 22.09L111.08 22.09L103.13 48.44M101.14 34.09L121.16 34.09L121.16 41.48L101.14 41.48L101.14 34.09ZM132.46 20.03L132.46 12.07L164.06 12.07L164.06 20.03L153.13 20.03L153.13 48.44L143.39 48.44L143.39 20.03L132.46 20.03ZM187.57 12.07L187.57 48.44L177.70 48.44L177.70 12.07L187.57 12.07ZM216.19 48.44L202.20 48.44L202.20 12.07L216.05 12.07Q221.66 12.07 225.75 14.25Q229.85 16.42 232.08 20.50Q234.30 24.57 234.30 30.26Q234.30 35.94 232.08 40.01Q229.87 44.09 225.80 46.26Q221.73 48.44 216.19 48.44M212.07 40.06L215.84 40.06Q218.54 40.06 220.45 39.19Q222.35 38.32 223.36 36.19Q224.36 34.06 224.36 30.26Q224.36 26.46 223.34 24.33Q222.32 22.19 220.36 21.32Q218.39 20.45 215.55 20.45L212.07 20.45L212.07 40.06ZM274.08 30.26Q274.08 36.33 271.72 40.49Q269.35 44.66 265.34 46.80Q261.33 48.93 256.39 48.93Q251.42 48.93 247.42 46.78Q243.41 44.62 241.06 40.46Q238.71 36.29 238.71 30.26Q238.71 24.18 241.06 20.02Q243.41 15.86 247.42 13.72Q251.42 11.58 256.39 11.58Q261.33 11.58 265.34 13.72Q269.35 15.86 271.72 20.02Q274.08 24.18 274.08 30.26M263.92 30.26Q263.92 26.99 263.06 24.74Q262.20 22.50 260.52 21.33Q258.84 20.17 256.39 20.17Q253.94 20.17 252.26 21.33Q250.59 22.50 249.72 24.74Q248.86 26.99 248.86 30.26Q248.86 33.52 249.72 35.77Q250.59 38.01 252.26 39.18Q253.94 40.34 256.39 40.34Q258.84 40.34 260.52 39.18Q262.20 38.01 263.06 35.77Q263.92 33.52 263.92 30.26Z"/></g></g></svg>